/* XPM */
static char * wood_xpm[] = {
"64 64 63 1",
" 	c None",
".	c #403018",
"+	c #6C4824",
"@	c #905C34",
"#	c #543C1C",
"$	c #382C14",
"%	c #28200C",
"&	c #483818",
"*	c #744C28",
"=	c #5C4020",
"-	c #8A7060",
";	c #B7ABA5",
">	c #D7D1CE",
",	c #E4E0DE",
"'	c #E6E3E1",
")	c #E3E2E1",
"!	c #E4E2E1",
"~	c #EAE4E2",
"{	c #E2E1E1",
"]	c #E4E3E1",
"^	c #DFDDDB",
"/	c #F5F3F2",
"(	c #FFFFFF",
"_	c #F4F2F2",
":	c #9E8B81",
"<	c #C9C1BD",
"[	c #DCD7D4",
"}	c #A07A64",
"|	c #FAFAFA",
"1	c #DCD2CE",
"2	c #EAE8E7",
"3	c #FDFCFC",
"4	c #A8A4A0",
"5	c #FDFDFD",
"6	c #E1E0DF",
"7	c #9A9590",
"8	c #5D5344",
"9	c #EFEEEE",
"0	c #B49C8F",
"a	c #F8F7F6",
"b	c #E3DBD8",
"c	c #C2AFA7",
"d	c #EDEAE9",
"e	c #C6BDB8",
"f	c #F0EEED",
"g	c #E6E5E4",
"h	c #F1F0EF",
"i	c #B6B0AC",
"j	c #C0BBB8",
"k	c #75685C",
"l	c #6E665C",
"m	c #C8C1BD",
"n	c #BCBAB7",
"o	c #F5F5F5",
"p	c #F7F6F6",
"q	c #DAD8D7",
"r	c #AAA7A3",
"s	c #A2958C",
"t	c #F8F8F8",
"u	c #DCDBDA",
"v	c #95908B",
"w	c #EAEAE9",
"x	c #F2F1F1",
"................................................................",
"++++++++++++++++++++++++++++++++++++++++++++++++++++++++++++++++",
"@@@@@@@@@@@@@@@@@@@@@@@@@@@@@@@@@@@@@@@@@@@@@@@@@@@@@@@@@@@@@@@@",
"#######$#%$##############$#%$####$#%$######$#%$###########$#%$##",
"&&+****#@%#@=&&&&**&+&+&&#@%#@*&*#@%#@=&&&=#@%#@&*&&*&*&**#@%#@+",
"&&+***=#@%#@+&&&#**&+&+&&#@%#@*&*#@%#@*=&=*#@%#@&*&&*&*&**#@%#@+",
"&&=***##@%#@*#&&#**&+&+&&#@%#@+&*#@%#@**=**#@%#@&*&&*&*&**#@%#@+",
"#&#+**##@%#@*#&&=*+&+&+&&#@%#@+&*#@%#@*****#@%#@&*&&*&*&**#@%#@+",
"+&&=*=&#@%#@*=&#+*+&+&+&&#@%#@+&*#@%#@*****#@%#@&*&&*&*&+*#@%#@#",
"+&#&=#&#@%#@*+&=**=&+&+&&#@%#@=&*#@%#@*****#@%#@&*&&*&*&+*#@%#@#",
"*#&&#&&#@%#@**=+**=&+&+&&#@%#@=&*#@%#@*****#@%#@&*&&*&*&=*#@%#@#",
"*#&&&&##@%#@**+***#&+&+&&#@%#@&&*#@%#@*****#@%#@&*&&*&*&=*#@%#@&",
"+*&&&#*#@%#@**+***#&+&+&&#@%#@&=*#@%#@+****#@%#@&*&&*&*#&*#@%#@&",
"+*#&&#*#@%#@*-;>,'))')'))!~{!~)],^/(((((_:+#@%#@&*&&*&*#&*#@%#@&",
"=**&#**#@%#@<(((((((((((((((((((((((((((([+#@%#@&*&&*&*#&*#@%#@&",
"#***#*=#@%#}(((((((((((((((((((((((((((((|=#@%#@&*&&*&*#&*#@%#@#",
"&+**=*##@%#1(((((((((((((((((((((((((((((2&#@%#@&*&&*&*=&*#@%#@#",
"&+****##@%#3(((((((((((((((((((((((((((((4&#@%#@&*&&*&*=&+#@%#@#",
"&=+***&#@%#(((((((((((((((((((((((((((5678&#@%#@&*&&*&*+&+#@%#@+",
"&#+**=&#@%#((((((#&#+&+&&#@%#@*+=#@%#@&&&&&#@%#@&*&&*&*+&+#@%#@+",
"&&=**#&#@%#((((((&&#+&+&&#@%#@*+&#@%#@&&&&&#@%#@&*&&*&*+&=#@%#@+",
"&&#**#&#@%#((((((&&#+&+&&#@%#@*=&#@%#@=&&&=#@%#@&*&&*&**&=#@%#@+",
"#&#=#&&#@%#((((((&&=+&+&&#@%#@+&&#@%#@+=&=+#@%#@&*&&*&+*&&#@%#@+",
"#&&#&&##@%#((((((&&=+&+&&#@%#@=&&#@%#@*+=+*#@%#@&*&&*&+*#&#@%#@+",
"#&&&&&##@%#((((((&&==&+&&#@%#@&&&#@%#@**+**#@%#@&*&&*&=*#&#@%#@=",
"+&&&&&+#@%#((((((&&+#&+&&#@%#@&&&#@%#@*****#@%#@&*&&*&=*=&#@%#@#",
"+&&&&&+#@%#((((((&&+#&+&&#@%#@&&##@%#@*****#@%#@&*&&*&#*=&#@%#@#",
"+#&&&#=#@%#((((((&#*&&+&&#@%#@&&##@%#@*****#@%#@&*&&*&#*+##@%#@&",
"=#&&&###@%#((((((&=*&&+&&#@%#@&&=#@%#@+****#@%#@&*&&*&#*+##@%#@&",
"#+&&&+##@%#((((((&=*&&+&&#@%#@&&+#@%#@+****#@%#@&*&&*&&**=&@%#@&",
"#+#&&+&#@%#((((((((((((((((((((((90%#@=***+#@%#@&*&&*&&**=#@%#@&",
"&=#&+=&#@%#((((((((((((((((((((((((%#@=+**+#@%#@&*&&*&&+*+#@%#@&",
"&#+#+#&#@%#a(((((((((((((((((((((((%#@&+**=#@%#@&*&&*&&+*+#@%#@&",
"&#+#+#&#@%#b(((((((((((((((((((((((%#@&=*+&#@%#@&*&&*#&=**#@%#@&",
"&&=+=&&#@%#c(((((((((((((((((((((((%#@&&+=&#@%#@&*&&*#&=**#@%#@#",
"&&#=#&&#@%#}(((((d*#&=+&&#@%#}ef(g0%#@&&=&&#@%#@&*&&*#&#**#@%#@#",
"&&&#&&&#@%#@((((((*#&=+&&#@%#@**+#@%#@&&&&&#@%#@&*&&*#&#**#@%#@=",
"&&&&&&&#@%#@((((((*&&++&&#@%#@**+#@%#@&&&&&#@%#@&*&&*=&#**#@%#@+",
"&&&&&&##@%#@3(((((+&&++&&#@%#@**=#@%#@&&&&&#@%#@&*&&*=&&+*#@%#@+",
"#&&&&&##@%#@((((((+&&*+&&#@%#@*+=#@%#@=&&&&#@%#@&*&&*+&&+*#@%#@+",
"#&&&&&=#@%#@h(((((i&&*+&&#@%#@*+&#@%#@=&&&&#@%#@&*&&++&&=*#@%#@#",
"+#&&&#=#@%#@j((((((&&*=&&#@%#@*=&#@%#@+=&&=#@%#@&*&&+*&&=*#@%#@#",
"+#&&&#+#@%#@k((((((l&*=&&#@%#@+=&#@%#@*=&==#@%#@&*&&=*#&#+#@%#@&",
"+=#&#=+#@%#@&m(((((n#*&&&#@%#@+&&#@%#@*+==+#@%#@&*&&=*#&#+#@%#@&",
"++###+=#@%#@&=(((((o=*&&&#@%#@=&&#@%#@**=+*#@%#@&*&&#*#&#=#@%#@&",
"=+=#=+##@%#@&#(((((((pqrl#@%#@&&&#@%#@**s'(!0%#@&*&&#*=&&=#@%#@&",
"#++=++##@%#@&&t((((((((((((((((((((((((((((((%#@&*&&#*=#&##@%#@&",
"#++=++&#@%#@&&q((((((((((((((((((((((((((((((%#@&*&&#*+#&##@%#@&",
"&+***+&#@%#@#&r((((((((((((((((((((((((((((((%#@&*&&&*+#&##@%#@&",
"&=***+&#@%#@#&lu(((((((((((((((((((((((((((((%#@&*&&&+*=&&#@%#@&",
"&#+**+&#@%#@=&&&vw(((((((((((((((((((((((((x0%#@&*&&&+*=#&#@%#@&",
"&#+**=&#@%#@+#&&&&&+*&&&&#@%#@#+*#@%#@=***=#@%#@&*&&&=*+#&#@%#@#",
"&&=*+=&#@%#@*#&&&&#*+&&&&#@%#@+**#@%#@=**+##@%#@&*&&&=*+=&#@%#@#",
"&&#++#&#@%#@*=&&&&=*+&&=&#@%#@***#@%#@#+*+##@%#@&*#&&#+*=##@%#@=",
"&&#+=#&#@%#@++#&&&+*=&&=&#@%#@***#@%#@#+*=&#@%#@&*#&&#=*+##@%#@=",
"&&&==&&#@%#@+*#&&#+*&&&+&#@%#@***#@%#@&=+#&#@%#@&*#&&&=*+##@%#@+",
"&&&##&&#@%#@=*+#&#**&&&+&#@%#@***#@%#@&#=&&#@%#@&*#&&&#+*##@%#@+",
"#&&&&&##@%#@&+*+#**+&&&+&#@%#@***#@%#@&&#&&#@%#@&+=&&&#=*+#@%#@*",
"#&&&&&##@%#@&=*****=&&&*&#@%#@**+#@%#@&&&&&#@%#@&++&&&&=*+#@%#@*",
"=&&&&&+#@%#@&&****+&&&=*&#@%#@**+#@%#@&&&&&#@%#@&=+#&&&#++#@%#@*",
"=#&&&#+#@%#@&&=+*+=&&&+*&#@%#@*+=#@%#@&&&&&#@%#@&=*#&&&&==#@%#@*",
"+#&&&#+#@%#@&&&=+=&&&&+*&#@%#@*+=#@%#@&&&&&#@%#@&&*#&&&&&##@%#@*",
"+=&&&#+#@%#@&&&&=&&&&+**=#@%#@+=&#@%#@&&&&&#@%#@=&*=&&&&&&#@%#@*",
"=======#@%#@=&&&&&&&=====#@%#@=&&#@%#@=&&&=#@%#@=&==&&&&&&#@%#@="};
