/* XPM */
static char * colorstone_xpm[] = {
"64 64 102 2",
"  	c None",
". 	c #7C7C7C",
"+ 	c #483818",
"@ 	c #543C1C",
"# 	c #5C4020",
"$ 	c #744C28",
"% 	c #403018",
"& 	c #545454",
"* 	c #646464",
"= 	c #707070",
"- 	c #2C2C2C",
"; 	c #484848",
"> 	c #4C4C4C",
", 	c #5C5C5C",
"' 	c #6C4824",
") 	c #382C14",
"! 	c #8C8C8C",
"~ 	c #A8A8A8",
"{ 	c #989898",
"] 	c #404040",
"^ 	c #383838",
"/ 	c #909090",
"( 	c #DEDEDE",
"_ 	c #FFFFFF",
": 	c #B2B2B2",
"< 	c #BABABA",
"[ 	c #D8D8D8",
"} 	c #757575",
"| 	c #9D9D9D",
"1 	c #B6B6B6",
"2 	c #A39B96",
"3 	c #6E665C",
"4 	c #E5E5E5",
"5 	c #DDDDDD",
"6 	c #DCDBDA",
"7 	c #B9B9B9",
"8 	c #E4E4E4",
"9 	c #FCFCFC",
"0 	c #E3E2E1",
"a 	c #343434",
"b 	c #929292",
"c 	c #C1BFBC",
"d 	c #F9F9F9",
"e 	c #A3A09B",
"f 	c #E7E7E7",
"g 	c #F6F6F6",
"h 	c #95908B",
"i 	c #F8F8F8",
"j 	c #B1AFAB",
"k 	c #E3E3E3",
"l 	c #AFADAB",
"m 	c #E2E2E2",
"n 	c #BFBFBF",
"o 	c #C1C1C1",
"p 	c #EBEBEB",
"q 	c #A2958C",
"r 	c #CCCCCC",
"s 	c #878787",
"t 	c #9C928C",
"u 	c #FAF9F9",
"v 	c #C3C3C3",
"w 	c #C5C5C5",
"x 	c #8F837B",
"y 	c #E8E6E5",
"z 	c #C0C0C0",
"A 	c #F5F5F5",
"B 	c #B0B0B0",
"C 	c #303030",
"D 	c #E6E6E6",
"E 	c #ECECEC",
"F 	c #D5D5D5",
"G 	c #EAEAEA",
"H 	c #999999",
"I 	c #6A6A6A",
"J 	c #F7F7F7",
"K 	c #ADADAD",
"L 	c #6E6E6E",
"M 	c #8F8F8F",
"N 	c #D3D3D3",
"O 	c #636363",
"P 	c #E1E1E1",
"Q 	c #969696",
"R 	c #D4D4D4",
"S 	c #959595",
"T 	c #FDFDFD",
"U 	c #B4B4B4",
"V 	c #F3F2F2",
"W 	c #A1A1A1",
"X 	c #A4A4A4",
"Y 	c #C0BBB8",
"Z 	c #7F7F7F",
"` 	c #ECEAE9",
" .	c #7A6A5D",
"..	c #F1F1F1",
"+.	c #CECECE",
"@.	c #202020",
"#.	c #D9D9D9",
"$.	c #B6B0AC",
"%.	c #B8B8B8",
"&.	c #D2D2D2",
"*.	c #282828",
"=.	c #1C1C1C",
". . . + @ # # $ # # # # # # # # # # # # # # @ % + # # # # @ @ + & * . . = = = = - - - - - - - ; * = & * & & > > > > & , , * = . ",
". = = & + @ # $ # # # # # # # @ # # # # # # @ % + # # # @ + + & * . . = . = . . ; - - - - - ; * = & * & > > & & , * * * * * * = ",
"= = = * & + @ ' # # # # # # # # @ @ # # # # @ % + # @ @ + ; & * * ; # # # # ; * * ; - - - ; * = & * & > & , * * * * * * * * * * ",
"& = . = * & + ' # # # # # # # # @ @ # # # # + % + @ + + & * . ; # # + + % + % + * * ; ; ; * = & * * * * * * , & & > > > > > > > ",
"> & = = . * + ' # # # # # # # # # # # # # @ + % + + & * . . ; # + + + + % + % + ; . * * * = & * , , , , , , , , , , , , , , , , ",
"> > & = = = + @ # # # # # @ # # # # # # @ % % + & * . . * # # + + + + + % + % % ) * ! ~ = & * & > > > > > > > > > > > > > > > > ",
"> > > & = . & + @ # # # # # # # # # # @ % % ; & * . . ; # + + + + + + + % % + ) ) * ~ . & * & > > > > > ; > > > > > > > > > > > ",
"> > > > & = . & + @ # # # # # # # @ @ % + & * * . * # # + + + + + + + + % % + ) ) * { . * & > > > > > > > > > > > > > > > > > > ",
"> > > > ; & . * & + @ # # # # @ @ % % & * * . . ; # @ + + + + + + % + + % ) + ) ) * { * & > > > > ; > > > > > > > > > ; > > > > ",
"> > > > ; ; . . * & + @ @ @ @ % % & * . . . * # # @ + + + + + + + % + + % ) % ) ) * ! * & > > > ; > > > > > > > > > > > > > > > ",
"> > > > ; ; . = . * & % % % % ; & * . . * ; # @ @ + + + + + + + + + + + + ) % ) ] * ! * , > ; > > > ; > > > > > > > > > > > > > ",
"> > > > ; ; = = . . * & & & & & * . . * # # @ + + + @ + + + + + + ) + + + ) ) ) > = . * , > > > ; > > > > > > ; ; > > > > > > ; ",
"> > > > ; ^ = = * & & & * = { { ! = * # @ @ + @ @ + + + + + + + + ) + + + ) ) ) & = ! * & > > > > > > > > > > ; ; > ; ; ; ; > > ",
"> > > ; ^ * . * & & & & ; * { ! ! * # + @ @ + @ @ + + + + + + + + ) + + + ) ) ) * = / ( _ _ _ : > > > > > > > > > > ; ; ; ; > > ",
"> > ; ^ * . = & & & & & ; ; = ! . # @ + # + + + + + + + + + + + + ) + + + ) ) ] * . < _ _ _ _ _ > > > > > > > > > > ; ; ; ; > > ",
"> ; ^ * . . * & & & & & ; ; ; * & # + # @ + + + + + + + + + + + % ) + + + ) ) > = . [ _ _ _ _ _ > > > > > > > > > > ; ; ; ; > ; ",
"; ^ * . . = * & & & & & ] > } | 1 2 3 # + + @ + + + + + + + + + % ) + + % ) ) & . . 4 _ _ _ _ _ > > > > > > > > > > > > > > ; ^ ",
"^ * * ; ; * = & & & & > ] & 5 _ _ _ 6 @ + + + + + + + + + + + + ) ) + + % ) ) * ' # 4 _ _ _ _ _ > > > > ; > > > > > > > > ; ^ ] ",
"* * ; @ @ ; * * & & & ] ] 7 _ _ _ _ _ @ + + + + + + + + + + + + ) % + % ) % , ' # # 8 _ _ _ _ _ > > > > > > > > > > > ; ] ^ ] ] ",
"* ; @ # + @ ; . ; & ] ] ] 9 _ _ _ _ _ @ + + + + + + + + + + + % ) % ) ) % * ' # # # 0 _ _ _ _ _ > > > > > > > > ; ] ^ a a ^ ] * ",
"; @ # + + + % * = ; ] & b _ _ _ _ _ _ _ _ c + + + + + + + + % ) ) ) ) > * . + + + + 0 _ _ _ _ _ ] ; ; ; ; ; ] ] ^ a ^ ] ^ & * * ",
"@ # + + + + % ; . * ; & 4 _ _ _ _ _ _ _ _ _ 3 + + + + + + + ) ) ) ) > * . . . * * * 4 _ _ _ _ _ ^ a a a a a a a ^ ] ] ^ & * . ; ",
"# + + + + + % % * = ; & _ _ _ _ _ _ _ _ _ _ d e + + + + + ) ) ) ] , * & & & & & & & f _ _ _ _ _ & ^ ] ] ] ] ] ] ] ] ^ & * . ; @ ",
"+ + + @ + + % + * . * ; g _ _ _ _ _ _ _ _ _ _ _ h + + + ) ) ] & * * & ; ] ^ ] ] ] ] 8 _ _ _ _ _ * & ^ ] ] ] ] ] ^ ^ & * . ; @ # ",
"+ + + + + + % + ; . . * i _ _ _ _ _ _ _ _ _ _ _ _ j % ) ) & * . * & ; ] ] ^ ^ ] ] ] k _ _ _ _ _ . * & ^ ^ ^ ^ ^ ^ & * . * @ # + ",
"+ + + + + + % + % * . = _ _ _ _ _ _ _ _ _ _ _ _ _ _ l ) ] * . * & ; ] ] ] ^ ] ^ ] ] m _ _ _ _ _ & . * & ^ ^ ^ ^ & * . * ; # + + ",
"+ @ @ + + + ) + % & = . _ _ _ _ _ _ n _ _ _ _ _ _ _ _ o , . & & ; ] ; ; ] ^ ] ^ ] ] m _ _ _ _ _ ; & . * & & & & * . * ; @ + + + ",
"+ @ @ + + + ) + % ; . ! _ _ _ _ _ p ' q _ _ _ _ _ _ _ _ r & & ; ] ] ; ; ] ^ ] ] ^ ] m _ _ _ _ _ ; ; & . . . ! ! . = ; @ + + + + ",
"+ + + @ + + ) + % ; . s _ _ _ _ _ q # # t u _ _ _ _ _ _ _ v ; ] ] ] ] ] ] a ] ] ^ ^ m _ _ _ _ _ ; ; ; * . ! ! . = * @ + + + + + ",
"+ + + + + % ) + % ; . w _ _ _ _ _ # # # # x y _ _ _ _ _ _ _ z ] ] ; ] ] ] a ] ] ^ ^ k _ _ _ _ _ ; ; ; & * = = * , & @ + + @ @ @ ",
"+ + + + + % % + % & = A _ _ _ _ _ # # # # # + r _ _ _ _ _ _ _ B ] ] ] ] ] a ] ] ^ a 8 _ _ _ _ _ * * * * * . = , & , @ + + @ @ @ ",
"+ + + + + ) % % % & . _ _ _ _ _ _ # # # @ + + . r _ _ _ _ _ _ _ B ] ] ] ] a ] ] ^ C 4 _ _ _ _ _ $ $ $ $ $ + # $ , * @ + + @ @ @ ",
"+ + + + % ) + % ; * . _ _ _ _ _ _ . @ @ + + * . & v _ _ _ _ _ _ _ b ] ] ] C ] ] a & D _ _ _ _ _ # # # # # + # # # . @ + + + + + ",
"+ + + + % ) % ; * * * _ _ _ _ _ E . . * & & . * & ; F _ _ _ _ _ _ _ 1 ] ^ C ] ^ C & G _ _ _ _ _ # # # # # + # # @ * @ + + @ + + ",
"+ + + + ) % ; * * . } _ _ _ _ _ H * . ! . ! . & ; ] I f _ _ _ _ _ _ _ B ^ C ] ^ C * J _ _ _ _ _ @ # # # # + # # @ * @ + + + + + ",
"+ + + % ) ; * * = * K _ _ _ _ _ & & * . ! ! ! & ] ] ] L J _ _ _ _ _ _ _ M C ] C * = _ _ _ _ _ _ # # # # # + # # @ * % + + + + + ",
"+ + + ) ; * * . . & N _ _ _ _ _ & & & * ! { { & ] ] ] ; H _ _ _ _ _ _ _ J O ^ ; = = _ _ _ _ _ _ # # # # # + # # @ * ; % + + + + ",
"+ + % ; * * = . * & P _ _ _ _ _ & & & & * { { * ] ] ] ; & Q _ _ _ _ _ _ _ R a & . * _ _ _ _ _ _ # # # # # @ # # @ * * ; % + + + ",
"+ % ; * * = . * & , 8 _ _ _ _ _ & & ; & & * ! = ^ ] ] ; & > S T _ _ _ _ _ _ U * . & _ _ _ _ _ V # # # # @ @ # # @ * . * ; % + + ",
"% ; * * . . = * & & 8 _ _ _ _ _ & & & ; & & ! ! & ^ ^ ; & ; > W _ _ _ _ _ _ _ X = q _ _ _ _ _ Y # # # # @ # # # + * . . * ; % % ",
"; * * ! ! . * & & & 8 _ _ _ _ _ & & & ] & & * = = C ^ ^ & ] > ] B _ _ _ _ _ _ _ Z ` _ _ _ _ _  .# # # # @ # # # + * . . . * ; ; ",
"* * { { ! * & & & & 8 _ _ _ _ _ & & & ] ; & & * * ; C a C ] > ] ] .._ _ _ _ _ _ +._ _ _ _ _ _ # # # # @ # # # # + * - - ^ & * * ",
"* . { { = & & & & , 8 _ _ _ _ _ & & & ; ] & & & * & ; C C ^ ; ; ] b _ _ _ _ _ _ _ _ _ _ _ _ _ # # # # @ # # # # + * - - - - ^ & ",
"- ; ! ! * & & & , , 8 _ _ _ _ _ & & & ; ] & & & & ; & * & a a ; ] ] b _ _ _ _ _ _ _ _ _ _ _ V # # # @ # # # # # + * - - - - @.- ",
"- @.; . & & & & , , 8 _ _ _ _ _ & ; & ; ] ; & & & ; * * & C a a ^ ] ] #._ _ _ _ _ _ _ _ _ _ Y # # # # # # @ # # + * - - - - @.- ",
"- @.; = & & & & , , 8 _ _ _ _ _ & & & ; ] ; & & ; ^ * ! ! & C a a ] ] * J _ _ _ _ _ _ _ _ _  .# # # # # # # # # + * - - - - @.- ",
"@.; * * & & & & & & 8 _ _ _ _ _ & ; & ; ] ; & ; ^ ; . ! ! . & C a ^ ^ C H _ _ _ _ _ _ _ _ _ # # # # # @ @ # # @ + * - - - @.- - ",
"; * * * ; & & , , & 8 _ _ _ _ _ & ; & ; a ; ; ^ ; & . ; + ; . & C C C C = r _ _ _ _ _ _ _ $.' # # # # @ @ # @ + ; * - - - @.- - ",
"* = = = * ; & , , & P _ _ _ _ _ & ; & ; a ] ^ ; & * ; @ + % ; . * & & * . * n _ _ _ _ _ %.@ # # # # # # # @ + ; * * @.@.@.@.@.@.",
". . = = . * ; ; & & &._ _ _ _ _ & ; & ] a ^ ; & * ; @ + + % + % ; . . . * ^ - - - - ^ * = * @ @ # # # # @ + ; * = . . ; ; ; ; ; ",
". = . ! ! ! * ; ; & K _ _ _ _ _ ; ; & ] a ; & * ; @ + + + % + % + ; . . ; ^ - - - - - ^ * = = & @ @ @ + + ; * & & & & & & * . . ",
". & ' ' & ! ! * ; ^ } 5 _ _ _ U ; ; ; a ; & * ; @ + + + + % + % + % . * ^ *.- - - *.*.- ^ * . = & @ + ; ; * * & & & & & & ; * . ",
"' ' # # ' ' & . * ; ^ ; & & & ; ; ; ^ ; & * ; @ + + + + + % + % + % . ^ - - *.- - *.*.- - ^ * . = & ; ; * . & & & > & & & ; * . ",
"# # # # # # ' ' & * ; ^ ; & ; ; ^ ^ ; * ; ; @ + + + + % + % + % % ; * ^ - - - @.*.- - - - - ^ * . = * * ! * > > & & & & > ; * . ",
"# @ # # # # # # ' + * ; ^ ; ; ^ ; & * ; @ # @ + + + + + + % % % ; * ^ - - - - - @.@.- *.- - - ^ * . = ! ! & > > & & & & > ; * ' ",
"# # # # # # # @ # + # # ; ^ ^ ; & * ; @ # @ + + + + + % + % % % & ^ ^ - - - - - *.@.@.*.- - - - ^ * . ! * & & & & & & > ; ; * ' ",
"# # @ @ # # # @ # + # # @ ; ; & * ; @ @ # @ + + + + + % + % % ; * ^ - - *.*.- - - *.@.@.*.- - - - ^ * . & & & & & & & ; ; & ' # ",
"# # @ @ # # # @ # + @ + + & & * ; @ + @ # + + + + + + % + % ; * ; ^ - - *.*.*.- - *.@.@.@.*.- - - - ^ * . & & & & & ; > ; * ' # ",
"# # # # # # @ + @ % + + & * * ; @ + + @ # + @ + + + + % % % & * ^ ^ - - *.*.- *.- - @.@.@.@.*.- - - - ^ * * & & & > ; ; & ' # # ",
"# # # # # # @ + + % + & . . . ; + + + @ # + + + + + + % % ; * ^ - ^ - - - - - - - - *.@.@.*.@.*.- - - - ^ * > > > ; > ; & ' # # ",
"# # # # # # @ + % % & . . . . & + + + @ # + + + + + + % ; * ; ^ - ^ - - - - - - - - *.@.@.@.*.@.*.- - - - @.* > ; & & ; ' # # # ",
"# # # # # # + % % & . & ] & . * ; + + @ # + + + + + + % & * ^ - - ^ - - - - *.*.- - - *.@.=.*.*.@.*.- - - @.& * & & > * ' # # # ",
"# # # # # @ + % & . & ] ] ] & . & + + @ # + + + + + % ; * ^ - - - ^ - - - - *.*.- - - *.@.=.@.- @.@.*.- - @.& . > > * ' # # # # ",
"# # # # @ % % & . . ] ] ] ] ] & * + + @ + + + + + % ; & * - - - - ^ - - *.- - - - - - *.@.=.@.- *.@.@.*.- @.& . . * * ' # # # # "};
