/* XPM */
static char * greystone_xpm[] = {
"64 64 88 1",
" 	c None",
".	c #1F1F1F",
"+	c #3B3B3B",
"@	c #575757",
"#	c #535353",
"$	c #4F4F4F",
"%	c #4B4B4B",
"&	c #D3D3D3",
"*	c #DFDFDF",
"=	c #838383",
"-	c #ABABAB",
";	c #B7B7B7",
">	c #C7C7C7",
",	c #474747",
"'	c #8F8F8F",
")	c #6B6B6B",
"!	c #7B7B7B",
"~	c #676767",
"{	c #5F5F5F",
"]	c #9B9B9B",
"^	c #737373",
"/	c #EFEFEF",
"(	c #5D5D5D",
"_	c #C0C0C0",
":	c #FBFBFB",
"<	c #FFFFFF",
"[	c #E8E8E8",
"}	c #777777",
"|	c #A8A8A8",
"1	c #D7D7D7",
"2	c #F6F6F6",
"3	c #3F3F3F",
"4	c #9F9F9F",
"5	c #CACACA",
"6	c #F7F7F7",
"7	c #C6C6C6",
"8	c #C5C5C5",
"9	c #C2C2C2",
"0	c #E9E9E9",
"a	c #8C8C8C",
"b	c #B4B4B4",
"c	c #FEFEFE",
"d	c #F1F1F1",
"e	c #EAEAEA",
"f	c #EEEEEE",
"g	c #ECECEC",
"h	c #DADADA",
"i	c #CFCFCF",
"j	c #747474",
"k	c #F8F8F8",
"l	c #FAFAFA",
"m	c #B9B9B9",
"n	c #C9C9C9",
"o	c #848484",
"p	c #A2A2A2",
"q	c #ACACAC",
"r	c #E5E5E5",
"s	c #E1E1E1",
"t	c #EDEDED",
"u	c #707070",
"v	c #CDCDCD",
"w	c #FDFDFD",
"x	c #D5D5D5",
"y	c #FCFCFC",
"z	c #F0F0F0",
"A	c #D9D9D9",
"B	c #959595",
"C	c #B6B6B6",
"D	c #E3E3E3",
"E	c #979797",
"F	c #DCDCDC",
"G	c #BABABA",
"H	c #D1D1D1",
"I	c #686868",
"J	c #E6E6E6",
"K	c #F3F3F3",
"L	c #A0A0A0",
"M	c #D8D8D8",
"N	c #D6D6D6",
"O	c #DEDEDE",
"P	c #CBCBCB",
"Q	c #818181",
"R	c #D4D4D4",
"S	c #CECECE",
"T	c #AFAFAF",
"U	c #C8C8C8",
"V	c #E7E7E7",
"W	c #EBEBEB",
".+.+.+.+.+.+.+.+.+.+.+.+.+.+.+.+.+.+.+.+.+.+.+.+.+.+.+.+.+.+.+.+",
"@#@$@$@$@$%&***&*&***&*&***.+=-;&>&&>&;>-=@.,,,,,,,,,,#$@$@$@$@$",
"#@##@###@#,*&>&;&&&>&&;&&>'.+=>;'-=''''=-$+.+)''='''!)~,,,%,,,%,",
"''='''='.#%*>>;&;>>;>>;;&'{.+-&-'-'-=-'-=@+.+'&***&*;;-'='''='''",
"&&&&;-'=.@,*&--]-'----]--!#.+';''=----='^$+.+=**;>;&***&*&>&&&>&",
"----]-!^.#,/;]----]-'-=--)#.+,-'--=']'-)@#+.+'&;-'-'--]''-'-=-']",
";]]]-'!).%,/&-=-'-']]]''-'$.+,!'=-'--=-^+++.+=*;'-=]=''-=']'-]']",
";-=;=]{@.+,/>']'--]'!''-'{@.+,,'--]'''-)+++.+'*--=]!-]!'-=--'!-]",
"]--']^,%..%>;-]-=-']=]''-)#..%#,!++++++++..++^**'-==]^]'-''!--^'",
"''='^#,,.+,-/-]-''''''=-=@!..+,+++++++.+(_:<<<[>'''']]]='-'--=-'",
"^)^^$%++..%'&'-''!''-=-'-)}|12<<<<<<<<<<<<<<<<<-'-=-'='^)~{{~{~{",
"#@,,,....+3^*-=]!!!-]456<<<<<<<<<<<<<<<<<<<<<<<')^~{~@###,%,%,,%",
".....+.+.+#,*>''']]=7<<<<<<<<<<<<<<<<<<<<<<<<<<)~{#%,,+++++.+.+.",
".+.+..+.++$,-&'-=!'8<<<<<<<<<<<<<<<<<<<<<<<<<<<++++++++.........",
"++++++++++%%'>-=-]9<<<<<<<<<<<<<<<<<<<<<<<<<<0a+..+..+.33+++++++",
"#%++++++.+#,^>=-]b<<<<<<<<<<<<<<cde[feghij+.+,@#@@.,%,,%,,,,,,,3",
"]]']']']]..@,>;]4k<<<<<<<<lm..%-/='--=-''$+.+)-*&@,#!]]']]]']]]]",
"&>&&>&;-^3.@,';'n<<<<<<<o')%..%->--'=-'-=@+.+-&>-.,!>&***&***&*&",
"-]'-'--)^+.#,^]-_<<<<<cp#^#%..%->-')^^)#@#+.+&>-=.%]&&;;-;;;-;;;",
"-']'-=')^+.,#,]'q<<<<<r$^#,...+]'^')+++++++.{*-''.,]*--]-'-']=]]",
"-''-=--)@+.,#,~#}<<<<<*........'^+++........{*--=.%]&-']=]']^='=",
"-'-'-='^$+.,#,.+.<<<<<s.......++$+.....+..+.'*--'.,'>=-]-'-']=]]",
"'-^!''-)@+.+$@%+.<<<<<t.$%%$%%,'''--'''!@.3~;*-=!.%=>-=]']=]!!''",
"'==!'-=~,+.+=***&<<<<<cu~!--;>>***&***>]~.+!*>]-^.,=;-]'-=-'!!''",
"''--=''{%+.+&>-']<<<<<<v!&/**>;;>;>;>;>)@.+'*-]').%)>=-'']'=-'-'",
"]-='-=^#++.+*]']-w<<<<<<]*>'-=-]=-]-]'=~,.+'/-=-@.%,'^{@##~~)!'=",
"~{~{~#,+++.+&---=x<<<<<<x/-]-'!--'='-=-@,.+=/--'@.#.++,,,,%,,#@#",
"#%,+++.....+*=-'--0<<<<<<<y<zAnB'!'-'''$%.+'/=-'$.@+.........++,",
".......+.%%,*-]=-'i<<<<<<<<<<<<<<<<<<<<<<<<<:iC=@.@+++++++.+....",
",~~)']'='',.*-^]'-BD<<<<<<<<<<<<<<<<<<<<<<<<<<<6E.@,3,$#$@##@+++",
"~';*&*&&>-^.*--=!'-=A<<<<<<<<<<<<<<<<<<<<<<<<<<<<8%-*&;'{@,,%,,#",
"~-&>>;--]-3./']-!'-]oF<<<<<<<<<<<<<<<<<<<<<<<<<<<<<t=';**&***'+#",
"~*;--=-'-=^./]-'--=-)%(G6<<<<<<<<<<<<<<<<<<<<<<<<<<<4=--='-'==+$",
"~&;]=-'-=-^./]=]-'-=~#..@-dnH_4'!'!!-=^,In<<<<<<<<<<J-='--=-'{+,",
"~*-'-'--!-$.*---'''-~$.+$'/;-'-=']=-'-{,.+3'[<<<<<<<<H--='-'-{+,",
"~*--'']]-=@.*;!]!--]{@..%)&;-'!]=']'''{+..%'&4J<<<<<<<-'-='-]@+,",
"~&;'--'-=-#.>*=]-'''{@..%#;*-=-'-'-='~#+.+,!-!$m<<<<<<-]'-'=-@++",
"~*;-]'-'-'$.;*!-=''-)@..+$';-'!~{#,%++++.+3@++++_<<<<<#@#@##@#++",
"~*-'--=-!-#.]&]!--=')@..+#,''{@,+........+,$,,$#@<<<<<.........+",
"~&;'=]-'-=@.!*-]-='-~$...$,+.+....+.+..+.+,#@,,%,<<<<<++++++++++",
"~*;--=]-'-#.@/']''-=~#..+,,,+++++%,%3$%,%,,@#!!'s<<<<<!!!!!!!^+$",
"~*-''-=-')@.,/-'=!'-)@...3~!!!!!!!!!!!!!''']-;-0<<<<<<>;>;>;>!+$",
"~>;--'-'-$..$/A<<<<9~@+..+!>;>;>;>>;>;>;>;&**Kw<<<<<<<//&*&&'~.%",
"~&;'-'--=@.+3/<<<<<<zE+...!>>/////**//*////Ky<<<<<<<<h;>;;>;!@.$",
"~;;-'-=''$.+,*<<<<<<<<L...!>>;>;>;>-;vMk<<<<<<<<<<<<N''-=-'-)@++",
"%>='-=^)^#.+,&<<<<<<<<<<<<<<<<<<<<<<<<<<<<<<<<<<<<<e|=-'--]')#.+",
",;--]'@##..3,;O<<<<<<<<<<<<<<<<<<<<<<<<<<<<<<<<<<<P=]]'-=-'-)@++",
",!!!@#@##.++3]]-D<<<<<<<<<<<<<<<<<<<<<<<<<<<<<<<<7'-'!^'!]''^#.+",
",+...@##@.+3%!~{QR<<<<<<<<<<<<<<<<<<<<<<<<<<<<lS4-='!''=-'^=)@.+",
"#@#,+....++3++++++T<<<<<<<<<<<<<<<<<<<<<<<<2UC='!'''=-'!''=!)@.+",
",%,,,%,+..+%++.....a0<<<<6V[WJJJJJJDD9C-='!=''!''-=-''-='''])@.+",
",!----''~%%#++..+..+..+.+.+#,++.+.+.@^)!'!!!!!!!!!!!!!!!!!!!~$.+",
",->&*&**;--'){@%++++++++++3@,,++++++.%##@#@#@#@###@#@##@#@###.++",
",-&--';&***;-------]''=!!)~~$@,,,3,++.+.+.+.+.+.+.............+3",
",-*---;-'-;***&*&*&****>&>;-----=%#,+++++++++..+.+.+.+.+.+.+++,%",
",-*-=-!!-]'!-=-'-'--=-'--->&*&&;=+,$%,,+++.+++++++++++++++++3,%#",
",->---'-''']-='-!^'-!'='-=-'---!~.+$%-&*]!%%,###,,3,,,3,,3,,$@##",
",->-=-!!]-=--]=!-!'!]=-'-'-=--]~#.+,,*--***&;##%;**&***&&>-]!%,#",
",-=~{~{~{~~{~{~~{~{~{~~{~{~{~{~@#+.+,&;-;-;;;{@!*]--'-=-]-'-&].#",
",'~+++++++++++++++++++++++++++++++..%;-;;]{]=~,;-'-=---=-'-=-#.@",
",+..................................$+,+$~{~~{%*]]]--']-]]-''$.@",
"#%+++.+..+..+..+.+..+..+..+..+..+.+.3$@++.....+#@#####@$#@#@$@.#",
"#@$#,,,%%,%%+++++++++++++++++++++++++$@$#++++++$#..............@",
"++++++++++++++++++++++++++++++++++++++++++++++++++++++++++++++++"};
