/* XPM */
static char * mossy_xpm[] = {
"64 64 133 2",
"  	c None",
". 	c #2C2C2C",
"+ 	c #545454",
"@ 	c #484848",
"# 	c #DCDCDC",
"$ 	c #CCC400",
"% 	c #B4AC00",
"& 	c #202020",
"* 	c #383838",
"= 	c #8C8C8C",
"- 	c #A8A8A8",
"; 	c #707070",
"> 	c #D0D0D0",
", 	c #989898",
"' 	c #C0C0C0",
") 	c #B4B4B4",
"! 	c #7C7C7C",
"~ 	c #9C9C00",
"{ 	c #706C00",
"] 	c #646464",
"^ 	c #848400",
"/ 	c #E4D800",
"( 	c #585400",
"_ 	c #ECECEC",
": 	c #FCF420",
"< 	c #737373",
"[ 	c #9C9C9C",
"} 	c #A7A7A7",
"| 	c #6A6A6A",
"1 	c #7B7B7B",
"2 	c #F3F3F3",
"3 	c #FFFFFF",
"4 	c #CCCCCC",
"5 	c #7F7F7F",
"6 	c #A1A1A1",
"7 	c #B2B2B2",
"8 	c #666666",
"9 	c #A3A3A3",
"0 	c #AFAFAF",
"a 	c #DFDFDF",
"b 	c #BFBFBF",
"c 	c #E1E1E1",
"d 	c #A6A6A6",
"e 	c #B0B0B0",
"f 	c #959595",
"g 	c #C7C7C7",
"h 	c #B5B5B5",
"i 	c #EFEFEF",
"j 	c #5D5D5D",
"k 	c #BEBEBE",
"l 	c #858585",
"m 	c #595959",
"n 	c #C8C8C8",
"o 	c #A2A2A2",
"p 	c #DFDFCC",
"q 	c #C5C5C5",
"r 	c #F9F9F9",
"s 	c #B7B7B7",
"t 	c #FEFEFD",
"u 	c #B8B8B8",
"v 	c #AAAAAA",
"w 	c #FAF7E5",
"x 	c #DADADA",
"y 	c #CAC589",
"z 	c #EEEEEE",
"A 	c #B9B9B9",
"B 	c #909090",
"C 	c #F4F4F0",
"D 	c #F5F5F5",
"E 	c #FBFBFB",
"F 	c #DEDED2",
"G 	c #E6E6E6",
"H 	c #FCFCF8",
"I 	c #AEAE89",
"J 	c #ACACAC",
"K 	c #F7F7F6",
"L 	c #777558",
"M 	c #F1F1F1",
"N 	c #969696",
"O 	c #CACACA",
"P 	c #F2F2F2",
"Q 	c #C1C1C1",
"R 	c #BBBBB6",
"S 	c #404000",
"T 	c #CECECE",
"U 	c #D9D9D9",
"V 	c #6A6A58",
"W 	c #F0F0F0",
"X 	c #878558",
"Y 	c #C7C7A2",
"Z 	c #DAD589",
"` 	c #FBFBF9",
" .	c #999999",
"..	c #A9A958",
"+.	c #C2C2C2",
"@.	c #FCFCFC",
"#.	c #969658",
"$.	c #999777",
"%.	c #FAFAFA",
"&.	c #A4A289",
"*.	c #CDCDCD",
"=.	c #ABABAB",
"-.	c #F2F2F0",
";.	c #C9C9B5",
">.	c #EAE9E5",
",.	c #F3F3F0",
"'.	c #B3B3B3",
").	c #F7F7F7",
"!.	c #D2D1C8",
"~.	c #C6C6C6",
"{.	c #C3C3C3",
"].	c #D7D7D7",
"^.	c #FDFDFD",
"/.	c #EBEBEB",
"(.	c #D6D6D6",
"_.	c #D5D5D5",
":.	c #9E9E9E",
"<.	c #6E6E6E",
"[.	c #BBBB89",
"}.	c #D4D4D4",
"|.	c #EBE8C8",
"1.	c #9A9989",
"2.	c #E2DEAA",
"3.	c #E2E2E2",
"4.	c #F8F8F6",
"5.	c #E0E0E0",
"6.	c #FBFBF8",
"7.	c #D5D5BC",
"8.	c #F8F8F8",
"9.	c #D2D2D2",
"0.	c #F6F6F6",
"a.	c #C9C9C9",
"b.	c #A4A4A4",
". . . . . . . . . . . . . . . . . . . . . . . . . . . . . . . . . . . . . . . . . . . . . . . . . . . . . . . . . . . . . . . . ",
"+ + + + + + + + + + @ # $ $ $ $ $ # # # # # # % % % # & * = - # # # # # $ $ $ ; = = + & @ @ @ @ @ @ @ @ @ @ + + + + + + + + + + ",
"+ + + + + + + + + + @ # > % % % % , - $ $ > ' ' $ $ = & * = ' ) = $ ! $ ~ ~ ~ { + + * & * ; ~ ~ ~ ~ ! ! ! ; ] @ @ @ @ @ @ @ @ @ ",
"= = = = = = = = & + @ # > % % % { , $ $ ~ ' ' ' ^ % ] & * - # - = ! $ ! { ^ { + ! + * & * ~ $ / ~ { = ) ' $ $ $ ] ] $ $ = = = = ",
"> ) % ) ) - = = & + @ # > ~ ~ ^ { , $ ~ - - , = = ~ + & * = ' = = = - - ] ^ { + ; + * & * ~ / % { ] ! ) # $ / / @ ] $ $ ^ ! > > ",
"- - % % + ; ! ; & + @ # ' ~ ^ { ; ! , - , ~ = ; = ^ + & * @ - $ ~ - = = ! ( + ; + + * & * ~ / { ] = ) / $ ! ~ ~ @ ] ~ ^ { @ = , ",
") , { + = = = ; & @ @ # > ~ { { ! - , , , ~ = , ; = + & * @ ! ~ ^ % = - - ; ] ; * * * & * ^ ~ { ] ! $ $ $ ! { ~ @ ; ] @ @ ] % ! ",
") ) ! = - = ; + & * @ # > = ! ! , - , > ! ^ , - = = + & * @ ; = - = - = = = - ; * * * . * ^ { ] = = ! $ ! ! { { @ ; ! = ; ! ^ ] ",
", - - ; ; = @ @ & . @ # ' - , ! , $ , , = , = = - = + & & @ + ; ; + + * * * * * * * & * * ! ] = ! - - ! = - ! @ ; = , = = - ! ] ",
"= = = = ; + @ @ & . @ # _ - ! , ! $ % ; = = = - = = + . & @ @ * * * * * * * * * & & * * * ! ) ) = ~ ! , ! ! , ] ; , = , = = - = ",
"; ; ; ; + @ * * & . @ # # = ! , , $ ~ ; - = - = - = + . & * @ * . . & & & & & . . * * * * ! ) ! ~ @ = - / ! = ; = ; , ] ; = ] ] ",
"+ + @ @ @ & & & & . @ - # - , ! $ % ~ ; , = = ! = ; ] * & * @ @ @ @ ; - - - - # # { * * * ; ) = ! ] ] ! ~ * + + ] @ @ @ @ @ @ @ ",
"& & & & & . . . . * + = # > = ! = ~ ; = = - ! = ~ = + * & * @ ; - : : # # # > > # $ { * * + = ; ] ] + @ ( * * * * * * . . . . . ",
". . . . . . . . . * + ; - > = - = = = - = = , = ] ] + * & . * - : $ ~ = = - = - ~ ; ( & * * * * * * * * * * * . . & & & & & & & ",
"* * * * * * * * * * + @ = > - = - , ; , = ! = - ^ + + * & . @ - $ ^ ! - = / / = ~ + { * * . . . . . . . . . . * * * * * * * * * ",
"+ @ * * * * * * * * + @ ; ' = - , $ ~ ; - = - = { + ; @ & . @ - / ^ ! = $ / ! = ^ + ( * @ @ + + + + & @ @ @ @ @ @ @ @ @ @ @ @ @ ",
", , , , , , , , , . & + @ ' ' ^ = ~ ^ - ; = = = ; ] + + & & @ / / ! ! - / / ; = { + * * @ / % % ] + @ + ! , , , , , , , , , , , ",
"> $ % # # $ ~ < = [ } [ | = ' { ] , ] = ; ; - = ; = ; @ & & @ / ! = ! = ~ { ] - = + * * * % % ^ ] . @ ! ' $ $ $ # % - - $ $ $ # ",
"$ % ^ % % ~ { 1 2 3 3 3 4 ; , ] ] = = ; = + = ; + ; + @ & & @ ! = ! = / ] ] 5 6 7 6 8 & * ~ ^ + ] & @ , $ $ $ ! / ~ ! - $ ~ ^ ; ",
"% ^ - % ~ ^ { 9 3 3 3 3 3 @ , , ; = ] ; ; ; ; + ; + @ . & & . - = ; = ; + 0 3 3 3 3 a & ] ~ ^ ; + & @ , $ $ b 3 3 3 c d $ ~ ^ ; ",
"^ - = % ~ { { e 3 3 3 3 3 f ] + + * * * * * * . & & & & & & . = ; * * * & 3 3 3 3 3 3 & ] = ^ = + & @ , - b 3 3 3 3 3 g $ ~ ^ , ",
"- = - % { + + h 3 3 3 3 3 i . . . . & & & & & & & & & & & & . * + * & & j 3 3 3 3 3 3 . = - = - + & @ = - 3 3 3 3 3 3 k - ~ { ; ",
"= - ! ! + ; = l 3 3 3 3 3 3 @ * & & & & & & m n 3 3 3 o @ @ @ = = , ~ ~ p 3 3 3 3 3 3 ] ' # - ' ] & @ = q 3 3 3 3 3 3 g - ! ! , ",
"= $ ~ ! = = = ] r 3 3 3 3 3 $ % ~ = ) ) ) ] s 3 3 3 3 3 $ % > _ _ _ $ $ t 3 3 3 3 3 u ! # ' # - ; & @ v 3 3 3 3 3 3 w d ! - , - ",
"= ~ ^ - = = = ] x 3 3 3 3 3 y ~ ! ! ! ! ! * z 3 3 3 3 3 A - - , - , ~ v 3 3 3 3 3 3 * = # - - ' / & f 3 3 3 3 3 3 3 B - , , - , ",
", ^ = = = = ; + } 3 3 3 3 3 C ] ] ] ] ] ] & 3 3 3 3 3 3 3 A $ - , , ! D 3 3 3 3 3 E * = / = = - ~ & i 3 3 3 3 3 3 F { ( ; ; + ; ",
"] ] ] ] ] + @ * 8 3 3 3 3 3 3 ] , ^ ~ { ] & G 3 3 3 3 3 3 H I , $ $ - 3 3 3 3 3 3 7 * = % ; = - { J 3 3 3 3 3 3 K L ( @ @ + + + ",
"+ @ @ * * * & & & M 3 3 3 3 3 A , ! ^ { ] & N 3 3 3 3 3 3 3 3 O $ ^ A 3 3 3 3 3 K & * = ; = - # ( 3 3 3 3 3 3 3 = & & & & * * @ ",
"& & & & & & . . . f 3 3 3 3 3 P ^ = ^ { ] & * Q 3 3 3 3 3 3 3 3 O - D 3 3 3 3 3 R & * / _ - # - + 3 3 3 3 3 3 A . . & & & & & & ",
"@ ] ] ; = , = = = = 3 3 3 3 3 3 ^ = ] ! ] S & @ T 3 3 3 3 3 3 3 3 U 3 3 3 3 3 3 V & * % _ ' ' - + 3 3 3 3 3 W 8 * * * * * * * * ",
"] = ) % % = - - - - 3 3 3 3 3 3 X - = ! ] S & @ , _ 3 3 3 3 3 3 3 3 3 3 3 3 3 P S & { ~ # - - % ) 3 3 3 3 3 Y % % ^ ^ @ @ @ @ + ",
"] ) % % ^ ] - - - - 2 3 3 3 3 3 n = ! = ] S & @ ! , Z ` 3 3 3 3 3 3 3 3 3 3 3  .S & * ~ # # % ~ 3 3 3 3 3 3 ..~ ~ % % % ^ , * + ",
"] % ~ ^ ] = - % % ; +.3 3 3 3 3 @.#.= - ] S & * + , ~ $.%.3 3 3 3 3 3 3 3 3 x @ * & * ~ # - % &.3 3 3 3 3 3 ~ ~ ^ ^ { { { ! * + ",
"] % ~ ; ; - ; % ^ ; 5 3 3 3 3 3 3 *.= ! ] S & . + - _ - Z 3 3 3 3 3 3 3 3 3 =.@ . & { = > ' % -.3 3 3 3 3 W ~ { ; ; ( ] ; ] * @ ",
"] ; = - = ; = % { ; + z 3 3 3 3 3 %.- ! ] S & . + = _ ' $ ;.3 3 3 3 3 3 3 3 3 f & & ~ = > - I 3 3 3 3 3 3 ' ~ { = ! , ] , ] * @ ",
"] - - = - - % ~ { ; + = 3 3 3 3 3 3 B = ] S & & @ ; > ' #.>.3 3 3 3 3 3 3 3 3 3 = & @ = > = ,.3 3 3 3 3 %.'.~ { ! = , , - + * @ ",
"] # , - = = ^ { { ; + & ).3 3 3 3 3 a - ] S S & @ + ) # !.3 3 3 3 3 3 3 3 3 3 3 3 ~.@ ! - b 3 3 3 3 3 3 {.= ~ ^ ; , ! ; , + * * ",
"] # - - = , { { ; ; + & O 3 3 3 3 3 3 7 ] S S & * + = ].3 3 3 3 3 3 3 3 3 3 3 3 3 3 Q + 8 3 3 3 3 3 3 2 + @ + + + + + + + + * * ",
"] # ) = % ^ = ; = , + & , 3 3 3 3 3 3 i ] + S & * + f ^.3 3 3 3 3 3 q 3 3 3 3 3 3 3 3 {.4 3 3 3 3 3 3 = & & & & & & & & & & & * ",
"] # ) - = , = % ~ ; + & ! /.3 3 3 3 3 3 B + S & . @ 3 3 3 3 3 3 3 O . '.3 3 3 3 3 3 3 3 3 3 3 3 3 3 (.@ @ @ * * * * * * * * * * ",
"] # % % , = % ~ ^ ; + & + _ 3 3 3 3 3 3 _.+ ( & :.3 3 3 3 3 3 3 ).<.@ @ ) 3 3 3 3 3 3 3 3 3 3 3 3 3 #.^ ! ! ! ! ! ! ! ! ! ! * + ",
"] % % ^ - , ~ { { ] + & @ _ W 3 3 3 3 3 3  .( = ^.3 3 3 3 3 3 3 [.~ ^ ! ! = }.3 3 3 3 3 3 3 3 3 3 |.% ^ ' ' / % ' $ % ^ ' ! * + ",
"] % ^ ! , , = { { ] & . @ _ {.3 3 3 3 3 3 i 1.3 3 3 3 3 3 3 3 2.$ $ $ ~ - ' - 3.3 3 3 3 3 3 3 3 4.#.^ ) ) / % ' ' % % % ^ ] . @ ",
"] % ^ ! - = = = = + & . @ _ = 5.3 3 3 3 3 3 3 3 3 3 3 3 3 6.y % % % % ^ - ' - - 3.3 3 3 3 3 3 3 {., $ $ % ! = ' % ~ % ^ ! + . @ ",
"] % ^ = = - = - = + & * @ # - '.@.3 3 3 3 3 3 3 3 3 3 3 3 [.~ ~ ~ ~ ~ ^ { = ' - - 7.3 3 3 3 8.A - $ % % ! = , - ; ; % ; ; + . * ",
"@ ^ ! = - = - = ] + & * @ > = = ].3 3 3 3 3 3 3 3 3 3 3 q = ~ ^ ~ ^ ^ { { ; - ' - = ! , ' , , - $ ! ! ! , - - , = = % ; ; + . * ",
"@ = = = = ! ] + + & . * @ ) - = [ 3 3 3 3 3 3 3 3 3 3 9.# ' ~ { { { { ; ; = - ' = ) = , , $ $ , = ! ; = = / % ) - = % ; ; + . * ",
"@ ! ! ; ] + + + + & . * @ , , - = q 3 3 3 3 3 3 3 3 '.) # > ^ ; ; ; ; ! , = ~ - ) - = ) $ - = = - = = , ) % ^ - , , ; ; ; + & * ",
"@ * & + + + + + + & * @ @ ! ] ] ] ] ~.3 3 3 3 3 0.B . - # > ; ! = = % % ^ ) = = ) , - ) - = % - % - , ) % ^ , - - , % % ; + & * ",
"+ + + . . & & . & . * @ * * * * * * * 8 } a.a.b.j . . = > ) = ) , ) % % { = ) = ) , = = / % { , - ' , - , , - , = = ) ! ; + & * ",
"@ @ @ @ * * . . . . * @ * * & & & & & & & & & & & & . = , ; ; ; ; ; ^ { { = - ; ! = ) / % { - = - , = = ) ! = = $ , = , ; + & * ",
"@ ! - $ $ $ ~ = ] @ @ + * * . . . . . . . . . . . . * + @ * . . . . . . + ; ; ! = % ) { { ! ! ; ] ! = = = ! ! ) ! ] ! ! ] + & * ",
"@ - $ / $ $ $ $ % ~ - = ; ] + @ * * * * * * * * * * @ + @ @ * * * * * * . @ + + + + + + + + + + + + + + + + + + + + + + + & . * ",
"@ - $ / % = = = , - ' % / / $ $ $ % % % % % ^ ; ! ; ] ] + + @ @ @ @ @ * * . . . . . & & . . . . . . & & & & & & & & & & & . * @ ",
"@ - ' , % , ' ' ) ' ) ' - = = ~ ~ ~ ~ ~ ~ ~ ~ ^ = = ' - - - - - = @ + @ * * * * * * * * * . . . . . . . . . . . . . . . * * @ @ ",
"@ - ' ' , ' ) - - , ' - ) ' ) - = = = = = ^ ^ ^ = , ' # / / = ' ! * @ + @ @ @ * * * * * * * * * * * * * * * * * * * * * @ @ @ + ",
"@ - ) > ' ) ' / % ^ ) ) > - > ' ' $ ~ , = = = = = ) - = / ^ = ! ] & * + @ ^ % % % ] @ @ @ + + + { % ~ ^ { { ( @ @ @ @ @ + + + + ",
"@ - ' ' - = ! % ^ ( ' - ' > - - - > ' ' - ' - > - ! - > - = = ] + & * @ @ % ^ ^ ^ ] # # ) + + ~ $ $ $ ~ ! $ - - > $ ) , ! @ @ + ",
"@ - = ; ] ] ] ^ ( ; ! ; ] ; ! ; ] ] ] ; ! = - = ! ] ] ] ] ] ] + + * & * @ ] ^ ^ { ] ) ) ) ] + = ! ! ! ! ! - - = $ ~ ; - # , & + ",
"@ = ] @ * * * * * * * * * * * * * * * * * * * * * * * * * * * * * * & . @ ) ^ { ] , ] , = ] @ = = - = - $ $ - - ~ ^ ; = - + & + ",
"@ * & & & & & & & & & & & & & & & & & & & & & & & & & & & & & & & & & . @ * S ( + ] ] ] ] ] @ ] ] , - $ $ ~ ! - ^ ; ; = = + & + ",
"+ @ * * * . . . . . . . . . . . . . . . . . . . . . . . . . . . . . . . * @ S S * & & & & & * @ + + { ( + + + { ( + + + + + & + ",
"+ + + + @ @ @ @ @ @ @ @ * * * * * * * * * * * * * * * * * * * * * * * * * @ @ @ @ * * * * * * @ @ & & & & & & & & & & & & & & + ",
"* * * * * * * * * * * * * * * * * * * * * * * * * * * * * * * * * * * * * * * * * * * * * * * * * * * * * * * * * * * * * * * * "};
